<svg width="233" height="366" viewBox="0 0 233 366" fill="none" xmlns="http://www.w3.org/2000/svg">
<path d="M3.73047 42V13.3672H7.51953V42H3.73047ZM15.1797 42V13.3672H19.0664L34.1055 35.8477V13.3672H37.7383V42H33.8516L18.8125 19.5V42H15.1797ZM52.4102 42V16.7461H42.9766V13.3672H65.6719V16.7461H56.1992V42H52.4102ZM70.6562 42V13.3672H91.3594V16.7461H74.4453V25.5156H90.2852V28.875H74.4453V38.6211H92.0234V42H70.6562ZM98.3164 42V13.3672H111.012C113.564 13.3672 115.504 13.6276 116.832 14.1484C118.16 14.6562 119.221 15.5612 120.016 16.8633C120.81 18.1654 121.207 19.6042 121.207 21.1797C121.207 23.2109 120.549 24.9232 119.234 26.3164C117.919 27.7096 115.888 28.5951 113.141 28.9727C114.143 29.4544 114.905 29.9297 115.426 30.3984C116.533 31.4141 117.581 32.6836 118.57 34.207L123.551 42H118.785L114.996 36.043C113.889 34.3242 112.978 33.0091 112.262 32.0977C111.546 31.1862 110.901 30.5482 110.328 30.1836C109.768 29.819 109.195 29.5651 108.609 29.4219C108.18 29.3307 107.477 29.2852 106.5 29.2852H102.105V42H98.3164ZM102.105 26.0039H110.25C111.982 26.0039 113.336 25.8281 114.312 25.4766C115.289 25.112 116.031 24.5391 116.539 23.7578C117.047 22.9635 117.301 22.1042 117.301 21.1797C117.301 19.8255 116.806 18.7122 115.816 17.8398C114.84 16.9674 113.29 16.5312 111.168 16.5312H102.105V26.0039ZM128.359 42V13.3672H147.676V16.7461H132.148V25.6133H145.586V28.9922H132.148V42H128.359ZM148.246 42L159.242 13.3672H163.324L175.043 42H170.727L167.387 33.3281H155.414L152.27 42H148.246ZM156.508 30.2422H166.215L163.227 22.3125C162.315 19.9036 161.638 17.9245 161.195 16.375C160.831 18.2109 160.316 20.0339 159.652 21.8438L156.508 30.2422ZM199.5 31.9609L203.289 32.918C202.495 36.0299 201.062 38.4062 198.992 40.0469C196.935 41.6745 194.415 42.4883 191.434 42.4883C188.348 42.4883 185.835 41.8633 183.895 40.6133C181.967 39.3503 180.496 37.5273 179.48 35.1445C178.478 32.7617 177.977 30.2031 177.977 27.4688C177.977 24.487 178.543 21.8893 179.676 19.6758C180.822 17.4492 182.443 15.763 184.539 14.6172C186.648 13.4583 188.966 12.8789 191.492 12.8789C194.357 12.8789 196.766 13.6081 198.719 15.0664C200.672 16.5247 202.033 18.5755 202.801 21.2188L199.07 22.0977C198.406 20.0143 197.443 18.4974 196.18 17.5469C194.917 16.5964 193.328 16.1211 191.414 16.1211C189.214 16.1211 187.371 16.6484 185.887 17.7031C184.415 18.7578 183.38 20.1771 182.781 21.9609C182.182 23.7318 181.883 25.5612 181.883 27.4492C181.883 29.8841 182.234 32.013 182.938 33.8359C183.654 35.6458 184.76 37 186.258 37.8984C187.755 38.7969 189.376 39.2461 191.121 39.2461C193.243 39.2461 195.04 38.6341 196.512 37.4102C197.983 36.1862 198.979 34.3698 199.5 31.9609ZM209.055 42V13.3672H229.758V16.7461H212.844V25.5156H228.684V28.875H212.844V38.6211H230.422V42H209.055Z" fill="url(#paint0_linear_0_1446)"/>
<g clip-path="url(#clip0_0_1446)">
<path d="M210 66H24V252H210V66Z" fill="white"/>
<path d="M42.135 77.625H35.625V84.135H42.135V77.625Z" fill="black"/>
<path d="M48.645 77.625H42.135V84.135H48.645V77.625Z" fill="black"/>
<path d="M55.155 77.625H48.645V84.135H55.155V77.625Z" fill="black"/>
<path d="M61.665 77.625H55.155V84.135H61.665V77.625Z" fill="black"/>
<path d="M68.175 77.625H61.665V84.135H68.175V77.625Z" fill="black"/>
<path d="M74.685 77.625H68.175V84.135H74.685V77.625Z" fill="black"/>
<path d="M81.195 77.625H74.685V84.135H81.195V77.625Z" fill="black"/>
<path d="M94.215 77.625H87.705V84.135H94.215V77.625Z" fill="black"/>
<path d="M120.255 77.625H113.745V84.135H120.255V77.625Z" fill="black"/>
<path d="M139.785 77.625H133.275V84.135H139.785V77.625Z" fill="black"/>
<path d="M159.315 77.625H152.805V84.135H159.315V77.625Z" fill="black"/>
<path d="M165.825 77.625H159.315V84.135H165.825V77.625Z" fill="black"/>
<path d="M172.335 77.625H165.825V84.135H172.335V77.625Z" fill="black"/>
<path d="M178.845 77.625H172.335V84.135H178.845V77.625Z" fill="black"/>
<path d="M185.355 77.625H178.845V84.135H185.355V77.625Z" fill="black"/>
<path d="M191.865 77.625H185.355V84.135H191.865V77.625Z" fill="black"/>
<path d="M198.375 77.625H191.865V84.135H198.375V77.625Z" fill="black"/>
<path d="M42.135 84.135H35.625V90.645H42.135V84.135Z" fill="black"/>
<path d="M81.195 84.135H74.685L74.685 90.645H81.195V84.135Z" fill="black"/>
<path d="M100.725 84.135H94.215V90.645H100.725V84.135Z" fill="black"/>
<path d="M113.745 84.135H107.235V90.645H113.745V84.135Z" fill="black"/>
<path d="M126.765 84.135H120.255V90.645H126.765V84.135Z" fill="black"/>
<path d="M133.275 84.135H126.765V90.645H133.275L133.275 84.135Z" fill="black"/>
<path d="M159.315 84.135H152.805V90.645H159.315V84.135Z" fill="black"/>
<path d="M198.375 84.135H191.865V90.645H198.375V84.135Z" fill="black"/>
<path d="M42.135 90.645H35.625V97.155H42.135V90.645Z" fill="black"/>
<path d="M55.155 90.645H48.645V97.155H55.155V90.645Z" fill="black"/>
<path d="M61.665 90.645H55.155V97.155H61.665V90.645Z" fill="black"/>
<path d="M68.175 90.645H61.665V97.155H68.175V90.645Z" fill="black"/>
<path d="M81.195 90.645H74.685V97.155H81.195V90.645Z" fill="black"/>
<path d="M94.215 90.645H87.705V97.155H94.215V90.645Z" fill="black"/>
<path d="M100.725 90.645H94.215V97.155H100.725V90.645Z" fill="black"/>
<path d="M113.745 90.645H107.235V97.155H113.745V90.645Z" fill="black"/>
<path d="M126.765 90.645H120.255V97.155H126.765V90.645Z" fill="black"/>
<path d="M133.275 90.645H126.765V97.155H133.275V90.645Z" fill="black"/>
<path d="M139.785 90.645H133.275V97.155H139.785V90.645Z" fill="black"/>
<path d="M159.315 90.645H152.805V97.155H159.315V90.645Z" fill="black"/>
<path d="M172.335 90.645H165.825V97.155H172.335V90.645Z" fill="black"/>
<path d="M178.845 90.645H172.335V97.155H178.845V90.645Z" fill="black"/>
<path d="M185.355 90.645H178.845V97.155H185.355V90.645Z" fill="black"/>
<path d="M198.375 90.645H191.865V97.155H198.375V90.645Z" fill="black"/>
<path d="M42.135 97.155H35.625V103.665H42.135V97.155Z" fill="black"/>
<path d="M55.155 97.155H48.645V103.665H55.155V97.155Z" fill="black"/>
<path d="M61.665 97.155H55.155V103.665H61.665V97.155Z" fill="black"/>
<path d="M68.175 97.155H61.665V103.665H68.175V97.155Z" fill="black"/>
<path d="M81.195 97.155H74.685V103.665H81.195V97.155Z" fill="black"/>
<path d="M94.215 97.155H87.705V103.665H94.215V97.155Z" fill="black"/>
<path d="M100.725 97.155H94.215V103.665H100.725V97.155Z" fill="black"/>
<path d="M107.235 97.155H100.725V103.665H107.235V97.155Z" fill="black"/>
<path d="M113.745 97.155H107.235V103.665H113.745V97.155Z" fill="black"/>
<path d="M120.255 97.155H113.745V103.665H120.255V97.155Z" fill="black"/>
<path d="M126.765 97.155H120.255V103.665H126.765V97.155Z" fill="black"/>
<path d="M139.785 97.155H133.275L133.275 103.665H139.785V97.155Z" fill="black"/>
<path d="M159.315 97.155H152.805V103.665H159.315V97.155Z" fill="black"/>
<path d="M172.335 97.155H165.825V103.665H172.335V97.155Z" fill="black"/>
<path d="M178.845 97.155H172.335V103.665H178.845V97.155Z" fill="black"/>
<path d="M185.355 97.155H178.845V103.665H185.355V97.155Z" fill="black"/>
<path d="M198.375 97.155H191.865V103.665H198.375V97.155Z" fill="black"/>
<path d="M42.135 103.665H35.625V110.175H42.135V103.665Z" fill="black"/>
<path d="M55.155 103.665H48.645V110.175H55.155V103.665Z" fill="black"/>
<path d="M61.665 103.665H55.155V110.175H61.665V103.665Z" fill="black"/>
<path d="M68.175 103.665H61.665V110.175H68.175V103.665Z" fill="black"/>
<path d="M81.195 103.665H74.685V110.175H81.195V103.665Z" fill="black"/>
<path d="M100.725 103.665H94.215V110.175H100.725V103.665Z" fill="black"/>
<path d="M107.235 103.665H100.725V110.175H107.235V103.665Z" fill="black"/>
<path d="M120.255 103.665H113.745V110.175H120.255V103.665Z" fill="black"/>
<path d="M139.785 103.665H133.275V110.175H139.785V103.665Z" fill="black"/>
<path d="M159.315 103.665H152.805V110.175H159.315V103.665Z" fill="black"/>
<path d="M172.335 103.665H165.825V110.175H172.335V103.665Z" fill="black"/>
<path d="M178.845 103.665H172.335V110.175H178.845V103.665Z" fill="black"/>
<path d="M185.355 103.665H178.845V110.175H185.355V103.665Z" fill="black"/>
<path d="M198.375 103.665H191.865V110.175H198.375V103.665Z" fill="black"/>
<path d="M42.135 110.175H35.625V116.685H42.135V110.175Z" fill="black"/>
<path d="M81.195 110.175H74.685V116.685H81.195V110.175Z" fill="black"/>
<path d="M94.215 110.175H87.705V116.685H94.215V110.175Z" fill="black"/>
<path d="M100.725 110.175H94.215V116.685H100.725V110.175Z" fill="black"/>
<path d="M107.235 110.175H100.725V116.685H107.235V110.175Z" fill="black"/>
<path d="M113.745 110.175H107.235V116.685H113.745V110.175Z" fill="black"/>
<path d="M146.295 110.175H139.785V116.685H146.295V110.175Z" fill="black"/>
<path d="M159.315 110.175H152.805V116.685H159.315V110.175Z" fill="black"/>
<path d="M198.375 110.175H191.865V116.685H198.375V110.175Z" fill="black"/>
<path d="M42.135 116.685H35.625V123.195H42.135V116.685Z" fill="black"/>
<path d="M48.645 116.685L42.135 116.685V123.195H48.645V116.685Z" fill="black"/>
<path d="M55.155 116.685H48.645V123.195H55.155V116.685Z" fill="black"/>
<path d="M61.665 116.685H55.155V123.195H61.665V116.685Z" fill="black"/>
<path d="M68.175 116.685H61.665V123.195H68.175V116.685Z" fill="black"/>
<path d="M74.685 116.685L68.175 116.685V123.195H74.685L74.685 116.685Z" fill="black"/>
<path d="M81.195 116.685H74.685L74.685 123.195H81.195V116.685Z" fill="black"/>
<path d="M94.215 116.685H87.705V123.195H94.215V116.685Z" fill="black"/>
<path d="M107.235 116.685H100.725V123.195H107.235V116.685Z" fill="black"/>
<path d="M120.255 116.685L113.745 116.685V123.195H120.255V116.685Z" fill="black"/>
<path d="M133.275 116.685H126.765V123.195H133.275V116.685Z" fill="black"/>
<path d="M146.295 116.685H139.785V123.195H146.295V116.685Z" fill="black"/>
<path d="M159.315 116.685H152.805V123.195H159.315V116.685Z" fill="black"/>
<path d="M165.825 116.685L159.315 116.685V123.195H165.825V116.685Z" fill="black"/>
<path d="M172.335 116.685H165.825V123.195H172.335V116.685Z" fill="black"/>
<path d="M178.845 116.685H172.335V123.195H178.845V116.685Z" fill="black"/>
<path d="M185.355 116.685H178.845V123.195H185.355V116.685Z" fill="black"/>
<path d="M191.865 116.685L185.355 116.685V123.195H191.865V116.685Z" fill="black"/>
<path d="M198.375 116.685H191.865V123.195H198.375V116.685Z" fill="black"/>
<path d="M94.215 123.195H87.705V129.705H94.215V123.195Z" fill="black"/>
<path d="M107.235 123.195H100.725V129.705H107.235V123.195Z" fill="black"/>
<path d="M120.255 123.195H113.745V129.705H120.255V123.195Z" fill="black"/>
<path d="M133.275 123.195H126.765V129.705H133.275V123.195Z" fill="black"/>
<path d="M42.135 129.705H35.625V136.215H42.135V129.705Z" fill="black"/>
<path d="M48.645 129.705H42.135V136.215H48.645V129.705Z" fill="black"/>
<path d="M61.665 129.705H55.155V136.215H61.665V129.705Z" fill="black"/>
<path d="M81.195 129.705H74.685V136.215H81.195V129.705Z" fill="black"/>
<path d="M87.705 129.705H81.195V136.215H87.705V129.705Z" fill="black"/>
<path d="M100.725 129.705H94.215V136.215H100.725V129.705Z" fill="black"/>
<path d="M107.235 129.705H100.725V136.215H107.235V129.705Z" fill="black"/>
<path d="M120.255 129.705H113.745V136.215H120.255V129.705Z" fill="black"/>
<path d="M133.275 129.705H126.765V136.215H133.275V129.705Z" fill="black"/>
<path d="M152.805 129.705H146.295V136.215H152.805V129.705Z" fill="black"/>
<path d="M159.315 129.705H152.805V136.215H159.315V129.705Z" fill="black"/>
<path d="M165.825 129.705H159.315V136.215H165.825V129.705Z" fill="black"/>
<path d="M178.845 129.705H172.335V136.215H178.845V129.705Z" fill="black"/>
<path d="M185.355 129.705H178.845V136.215H185.355V129.705Z" fill="black"/>
<path d="M198.375 129.705H191.865V136.215H198.375V129.705Z" fill="black"/>
<path d="M42.135 136.215H35.625V142.725H42.135V136.215Z" fill="black"/>
<path d="M68.175 136.215H61.665V142.725H68.175V136.215Z" fill="black"/>
<path d="M74.685 136.215H68.175V142.725H74.685L74.685 136.215Z" fill="black"/>
<path d="M94.215 136.215H87.705V142.725H94.215V136.215Z" fill="black"/>
<path d="M100.725 136.215H94.215V142.725H100.725V136.215Z" fill="black"/>
<path d="M107.235 136.215H100.725V142.725H107.235V136.215Z" fill="black"/>
<path d="M113.745 136.215H107.235V142.725H113.745V136.215Z" fill="black"/>
<path d="M126.765 136.215H120.255V142.725H126.765V136.215Z" fill="black"/>
<path d="M159.315 136.215H152.805V142.725H159.315V136.215Z" fill="black"/>
<path d="M185.355 136.215H178.845V142.725H185.355V136.215Z" fill="black"/>
<path d="M48.645 142.725H42.135V149.235H48.645V142.725Z" fill="black"/>
<path d="M61.665 142.725H55.155V149.235H61.665V142.725Z" fill="black"/>
<path d="M74.685 142.725H68.175V149.235H74.685V142.725Z" fill="black"/>
<path d="M81.195 142.725H74.685V149.235H81.195V142.725Z" fill="black"/>
<path d="M87.705 142.725H81.195V149.235H87.705V142.725Z" fill="black"/>
<path d="M133.275 142.725H126.765V149.235H133.275V142.725Z" fill="black"/>
<path d="M146.295 142.725H139.785V149.235H146.295V142.725Z" fill="black"/>
<path d="M152.805 142.725H146.295V149.235H152.805V142.725Z" fill="black"/>
<path d="M159.315 142.725H152.805V149.235H159.315V142.725Z" fill="black"/>
<path d="M178.845 142.725H172.335V149.235H178.845V142.725Z" fill="black"/>
<path d="M185.355 142.725H178.845V149.235H185.355V142.725Z" fill="black"/>
<path d="M198.375 142.725H191.865V149.235H198.375V142.725Z" fill="black"/>
<path d="M48.645 149.235H42.135V155.745H48.645V149.235Z" fill="black"/>
<path d="M55.155 149.235H48.645V155.745H55.155V149.235Z" fill="black"/>
<path d="M61.665 149.235H55.155V155.745H61.665V149.235Z" fill="black"/>
<path d="M74.685 149.235H68.175V155.745H74.685V149.235Z" fill="black"/>
<path d="M87.705 149.235H81.195V155.745H87.705V149.235Z" fill="black"/>
<path d="M113.745 149.235H107.235V155.745H113.745V149.235Z" fill="black"/>
<path d="M120.255 149.235H113.745V155.745H120.255V149.235Z" fill="black"/>
<path d="M126.765 149.235H120.255V155.745H126.765V149.235Z" fill="black"/>
<path d="M133.275 149.235H126.765V155.745H133.275V149.235Z" fill="black"/>
<path d="M139.785 149.235H133.275V155.745H139.785V149.235Z" fill="black"/>
<path d="M165.825 149.235H159.315V155.745H165.825V149.235Z" fill="black"/>
<path d="M191.865 149.235H185.355V155.745H191.865V149.235Z" fill="black"/>
<path d="M198.375 149.235H191.865V155.745H198.375V149.235Z" fill="black"/>
<path d="M68.175 155.745H61.665V162.255H68.175V155.745Z" fill="black"/>
<path d="M74.685 155.745H68.175V162.255H74.685V155.745Z" fill="black"/>
<path d="M81.195 155.745H74.685V162.255H81.195V155.745Z" fill="black"/>
<path d="M87.705 155.745H81.195V162.255H87.705V155.745Z" fill="black"/>
<path d="M113.745 155.745H107.235V162.255H113.745V155.745Z" fill="black"/>
<path d="M120.255 155.745H113.745V162.255H120.255V155.745Z" fill="black"/>
<path d="M126.765 155.745H120.255V162.255H126.765V155.745Z" fill="black"/>
<path d="M146.295 155.745H139.785V162.255H146.295V155.745Z" fill="black"/>
<path d="M191.865 155.745H185.355V162.255H191.865V155.745Z" fill="black"/>
<path d="M42.135 162.255H35.625V168.765H42.135V162.255Z" fill="black"/>
<path d="M48.645 162.255H42.135V168.765H48.645V162.255Z" fill="black"/>
<path d="M74.685 162.255H68.175V168.765H74.685V162.255Z" fill="black"/>
<path d="M94.215 162.255H87.705V168.765H94.215V162.255Z" fill="black"/>
<path d="M100.725 162.255H94.215V168.765H100.725V162.255Z" fill="black"/>
<path d="M107.235 162.255H100.725V168.765H107.235V162.255Z" fill="black"/>
<path d="M133.275 162.255H126.765V168.765H133.275V162.255Z" fill="black"/>
<path d="M159.315 162.255H152.805V168.765H159.315V162.255Z" fill="black"/>
<path d="M165.825 162.255H159.315V168.765H165.825V162.255Z" fill="black"/>
<path d="M172.335 162.255H165.825V168.765H172.335V162.255Z" fill="black"/>
<path d="M191.865 162.255H185.355V168.765H191.865V162.255Z" fill="black"/>
<path d="M61.665 168.765H55.155V175.275H61.665V168.765Z" fill="black"/>
<path d="M68.175 168.765H61.665V175.275H68.175V168.765Z" fill="black"/>
<path d="M81.195 168.765H74.685L74.685 175.275H81.195V168.765Z" fill="black"/>
<path d="M100.725 168.765H94.215V175.275H100.725V168.765Z" fill="black"/>
<path d="M120.255 168.765H113.745V175.275H120.255V168.765Z" fill="black"/>
<path d="M126.765 168.765H120.255V175.275H126.765V168.765Z" fill="black"/>
<path d="M139.785 168.765H133.275L133.275 175.275H139.785V168.765Z" fill="black"/>
<path d="M146.295 168.765H139.785V175.275H146.295V168.765Z" fill="black"/>
<path d="M152.805 168.765H146.295V175.275H152.805V168.765Z" fill="black"/>
<path d="M159.315 168.765H152.805V175.275H159.315V168.765Z" fill="black"/>
<path d="M165.825 168.765H159.315V175.275H165.825V168.765Z" fill="black"/>
<path d="M172.335 168.765H165.825V175.275H172.335V168.765Z" fill="black"/>
<path d="M185.355 168.765H178.845V175.275H185.355V168.765Z" fill="black"/>
<path d="M191.865 168.765H185.355V175.275H191.865V168.765Z" fill="black"/>
<path d="M42.135 175.275H35.625V181.785H42.135V175.275Z" fill="black"/>
<path d="M55.155 175.275L48.645 175.275V181.785H55.155V175.275Z" fill="black"/>
<path d="M68.175 175.275H61.665V181.785H68.175V175.275Z" fill="black"/>
<path d="M120.255 175.275H113.745V181.785H120.255V175.275Z" fill="black"/>
<path d="M126.765 175.275H120.255V181.785H126.765V175.275Z" fill="black"/>
<path d="M146.295 175.275H139.785V181.785H146.295V175.275Z" fill="black"/>
<path d="M178.845 175.275H172.335V181.785H178.845V175.275Z" fill="black"/>
<path d="M191.865 175.275H185.355V181.785H191.865V175.275Z" fill="black"/>
<path d="M48.645 181.785H42.135V188.295H48.645V181.785Z" fill="black"/>
<path d="M81.195 181.785H74.685V188.295H81.195V181.785Z" fill="black"/>
<path d="M87.705 181.785H81.195V188.295H87.705V181.785Z" fill="black"/>
<path d="M94.215 181.785H87.705V188.295H94.215V181.785Z" fill="black"/>
<path d="M100.725 181.785H94.215V188.295H100.725V181.785Z" fill="black"/>
<path d="M107.235 181.785H100.725V188.295H107.235V181.785Z" fill="black"/>
<path d="M113.745 181.785H107.235V188.295H113.745V181.785Z" fill="black"/>
<path d="M126.765 181.785H120.255V188.295H126.765V181.785Z" fill="black"/>
<path d="M133.275 181.785H126.765V188.295H133.275V181.785Z" fill="black"/>
<path d="M139.785 181.785H133.275V188.295H139.785V181.785Z" fill="black"/>
<path d="M146.295 181.785H139.785V188.295H146.295V181.785Z" fill="black"/>
<path d="M152.805 181.785H146.295V188.295H152.805V181.785Z" fill="black"/>
<path d="M159.315 181.785H152.805V188.295H159.315V181.785Z" fill="black"/>
<path d="M165.825 181.785H159.315V188.295H165.825V181.785Z" fill="black"/>
<path d="M172.335 181.785H165.825V188.295H172.335V181.785Z" fill="black"/>
<path d="M178.845 181.785H172.335V188.295H178.845V181.785Z" fill="black"/>
<path d="M113.745 188.295H107.235V194.805H113.745V188.295Z" fill="black"/>
<path d="M120.255 188.295H113.745V194.805H120.255V188.295Z" fill="black"/>
<path d="M126.765 188.295H120.255V194.805H126.765V188.295Z" fill="black"/>
<path d="M133.275 188.295H126.765V194.805H133.275V188.295Z" fill="black"/>
<path d="M139.785 188.295H133.275V194.805H139.785V188.295Z" fill="black"/>
<path d="M146.295 188.295H139.785V194.805H146.295V188.295Z" fill="black"/>
<path d="M172.335 188.295H165.825V194.805H172.335V188.295Z" fill="black"/>
<path d="M178.845 188.295H172.335V194.805H178.845V188.295Z" fill="black"/>
<path d="M185.355 188.295H178.845V194.805H185.355V188.295Z" fill="black"/>
<path d="M198.375 188.295H191.865V194.805H198.375V188.295Z" fill="black"/>
<path d="M42.135 194.805H35.625V201.315H42.135V194.805Z" fill="black"/>
<path d="M48.645 194.805H42.135V201.315H48.645V194.805Z" fill="black"/>
<path d="M55.155 194.805H48.645V201.315H55.155V194.805Z" fill="black"/>
<path d="M61.665 194.805H55.155V201.315H61.665V194.805Z" fill="black"/>
<path d="M68.175 194.805H61.665V201.315H68.175V194.805Z" fill="black"/>
<path d="M74.685 194.805H68.175V201.315H74.685V194.805Z" fill="black"/>
<path d="M81.195 194.805H74.685V201.315H81.195V194.805Z" fill="black"/>
<path d="M94.215 194.805H87.705V201.315H94.215V194.805Z" fill="black"/>
<path d="M120.255 194.805H113.745V201.315H120.255V194.805Z" fill="black"/>
<path d="M126.765 194.805H120.255V201.315H126.765V194.805Z" fill="black"/>
<path d="M133.275 194.805H126.765V201.315H133.275V194.805Z" fill="black"/>
<path d="M139.785 194.805H133.275V201.315H139.785V194.805Z" fill="black"/>
<path d="M146.295 194.805H139.785V201.315H146.295V194.805Z" fill="black"/>
<path d="M159.315 194.805H152.805V201.315H159.315V194.805Z" fill="black"/>
<path d="M172.335 194.805H165.825V201.315H172.335V194.805Z" fill="black"/>
<path d="M178.845 194.805H172.335V201.315H178.845V194.805Z" fill="black"/>
<path d="M185.355 194.805H178.845V201.315H185.355V194.805Z" fill="black"/>
<path d="M191.865 194.805H185.355V201.315H191.865V194.805Z" fill="black"/>
<path d="M198.375 194.805H191.865V201.315H198.375V194.805Z" fill="black"/>
<path d="M42.135 201.315H35.625V207.825H42.135V201.315Z" fill="black"/>
<path d="M81.195 201.315H74.685L74.685 207.825H81.195V201.315Z" fill="black"/>
<path d="M100.725 201.315H94.215V207.825H100.725V201.315Z" fill="black"/>
<path d="M120.255 201.315H113.745V207.825H120.255V201.315Z" fill="black"/>
<path d="M126.765 201.315H120.255V207.825H126.765V201.315Z" fill="black"/>
<path d="M139.785 201.315H133.275L133.275 207.825H139.785V201.315Z" fill="black"/>
<path d="M146.295 201.315H139.785V207.825H146.295V201.315Z" fill="black"/>
<path d="M172.335 201.315H165.825V207.825H172.335V201.315Z" fill="black"/>
<path d="M198.375 201.315H191.865V207.825H198.375V201.315Z" fill="black"/>
<path d="M42.135 207.825H35.625V214.335H42.135V207.825Z" fill="black"/>
<path d="M55.155 207.825H48.645V214.335H55.155V207.825Z" fill="black"/>
<path d="M61.665 207.825H55.155V214.335H61.665V207.825Z" fill="black"/>
<path d="M68.175 207.825H61.665V214.335H68.175V207.825Z" fill="black"/>
<path d="M81.195 207.825H74.685V214.335H81.195V207.825Z" fill="black"/>
<path d="M107.235 207.825H100.725V214.335H107.235V207.825Z" fill="black"/>
<path d="M120.255 207.825H113.745V214.335H120.255V207.825Z" fill="black"/>
<path d="M126.765 207.825H120.255V214.335H126.765V207.825Z" fill="black"/>
<path d="M133.275 207.825H126.765V214.335H133.275L133.275 207.825Z" fill="black"/>
<path d="M139.785 207.825H133.275L133.275 214.335H139.785V207.825Z" fill="black"/>
<path d="M146.295 207.825H139.785V214.335H146.295V207.825Z" fill="black"/>
<path d="M152.805 207.825H146.295V214.335H152.805V207.825Z" fill="black"/>
<path d="M159.315 207.825H152.805V214.335H159.315V207.825Z" fill="black"/>
<path d="M165.825 207.825H159.315V214.335H165.825V207.825Z" fill="black"/>
<path d="M172.335 207.825H165.825V214.335H172.335V207.825Z" fill="black"/>
<path d="M178.845 207.825H172.335V214.335H178.845V207.825Z" fill="black"/>
<path d="M185.355 207.825H178.845V214.335H185.355V207.825Z" fill="black"/>
<path d="M191.865 207.825H185.355V214.335H191.865V207.825Z" fill="black"/>
<path d="M198.375 207.825H191.865V214.335H198.375V207.825Z" fill="black"/>
<path d="M42.135 214.335H35.625V220.845H42.135V214.335Z" fill="black"/>
<path d="M55.155 214.335H48.645V220.845H55.155V214.335Z" fill="black"/>
<path d="M61.665 214.335H55.155V220.845H61.665V214.335Z" fill="black"/>
<path d="M68.175 214.335H61.665V220.845H68.175V214.335Z" fill="black"/>
<path d="M81.195 214.335H74.685V220.845H81.195V214.335Z" fill="black"/>
<path d="M94.215 214.335H87.705V220.845H94.215V214.335Z" fill="black"/>
<path d="M113.745 214.335H107.235V220.845H113.745V214.335Z" fill="black"/>
<path d="M146.295 214.335H139.785V220.845H146.295V214.335Z" fill="black"/>
<path d="M172.335 214.335H165.825V220.845H172.335V214.335Z" fill="black"/>
<path d="M178.845 214.335H172.335V220.845H178.845V214.335Z" fill="black"/>
<path d="M198.375 214.335H191.865V220.845H198.375V214.335Z" fill="black"/>
<path d="M42.135 220.845H35.625V227.355H42.135V220.845Z" fill="black"/>
<path d="M55.155 220.845H48.645V227.355H55.155V220.845Z" fill="black"/>
<path d="M61.665 220.845H55.155V227.355H61.665V220.845Z" fill="black"/>
<path d="M68.175 220.845H61.665V227.355H68.175V220.845Z" fill="black"/>
<path d="M81.195 220.845H74.685V227.355H81.195V220.845Z" fill="black"/>
<path d="M113.745 220.845H107.235V227.355H113.745V220.845Z" fill="black"/>
<path d="M120.255 220.845H113.745V227.355H120.255V220.845Z" fill="black"/>
<path d="M133.275 220.845H126.765V227.355H133.275V220.845Z" fill="black"/>
<path d="M146.295 220.845H139.785V227.355H146.295V220.845Z" fill="black"/>
<path d="M152.805 220.845H146.295V227.355H152.805V220.845Z" fill="black"/>
<path d="M159.315 220.845H152.805V227.355H159.315V220.845Z" fill="black"/>
<path d="M178.845 220.845H172.335V227.355H178.845V220.845Z" fill="black"/>
<path d="M185.355 220.845H178.845V227.355H185.355V220.845Z" fill="black"/>
<path d="M191.865 220.845H185.355V227.355H191.865V220.845Z" fill="black"/>
<path d="M198.375 220.845H191.865V227.355H198.375V220.845Z" fill="black"/>
<path d="M42.135 227.355H35.625V233.865H42.135V227.355Z" fill="black"/>
<path d="M81.195 227.355H74.685V233.865H81.195V227.355Z" fill="black"/>
<path d="M94.215 227.355H87.705V233.865H94.215V227.355Z" fill="black"/>
<path d="M100.725 227.355H94.215V233.865H100.725V227.355Z" fill="black"/>
<path d="M120.255 227.355H113.745V233.865H120.255V227.355Z" fill="black"/>
<path d="M133.275 227.355H126.765V233.865H133.275V227.355Z" fill="black"/>
<path d="M146.295 227.355H139.785V233.865H146.295V227.355Z" fill="black"/>
<path d="M159.315 227.355H152.805V233.865H159.315V227.355Z" fill="black"/>
<path d="M178.845 227.355H172.335V233.865H178.845V227.355Z" fill="black"/>
<path d="M185.355 227.355H178.845V233.865H185.355V227.355Z" fill="black"/>
<path d="M198.375 227.355H191.865V233.865H198.375V227.355Z" fill="black"/>
<path d="M42.135 233.865H35.625V240.375H42.135V233.865Z" fill="black"/>
<path d="M48.645 233.865H42.135V240.375H48.645V233.865Z" fill="black"/>
<path d="M55.155 233.865H48.645V240.375H55.155V233.865Z" fill="black"/>
<path d="M61.665 233.865H55.155V240.375H61.665V233.865Z" fill="black"/>
<path d="M68.175 233.865H61.665V240.375H68.175V233.865Z" fill="black"/>
<path d="M74.685 233.865H68.175V240.375H74.685L74.685 233.865Z" fill="black"/>
<path d="M81.195 233.865H74.685L74.685 240.375H81.195V233.865Z" fill="black"/>
<path d="M94.215 233.865H87.705V240.375H94.215V233.865Z" fill="black"/>
<path d="M120.255 233.865H113.745V240.375H120.255V233.865Z" fill="black"/>
<path d="M126.765 233.865H120.255V240.375H126.765V233.865Z" fill="black"/>
<path d="M139.785 233.865H133.275L133.275 240.375H139.785V233.865Z" fill="black"/>
<path d="M146.295 233.865H139.785V240.375H146.295V233.865Z" fill="black"/>
<path d="M152.805 233.865H146.295V240.375H152.805V233.865Z" fill="black"/>
<path d="M159.315 233.865H152.805V240.375H159.315V233.865Z" fill="black"/>
<path d="M178.845 233.865H172.335V240.375H178.845V233.865Z" fill="black"/>
<path d="M198.375 233.865H191.865V240.375H198.375V233.865Z" fill="black"/>
</g>
<path d="M230 251.5V199" stroke="white" stroke-linecap="round"/>
<path d="M4 126.102L4 66" stroke="white" stroke-linecap="round"/>
<path d="M36.698 275.978C35.3853 275.978 34.41 275.688 33.772 275.109C33.1413 274.522 32.804 273.602 32.76 272.348C32.7527 272.172 32.8003 272.033 32.903 271.93C33.013 271.82 33.156 271.765 33.332 271.765C33.508 271.765 33.6473 271.816 33.75 271.919C33.8527 272.022 33.9113 272.161 33.926 272.337C33.9553 273.261 34.1753 273.906 34.586 274.273C34.9967 274.64 35.7007 274.823 36.698 274.823H39.866C40.9073 274.823 41.6297 274.621 42.033 274.218C42.4437 273.807 42.649 273.089 42.649 272.062C42.649 271.021 42.4437 270.298 42.033 269.895C41.6297 269.484 40.9073 269.279 39.866 269.279H36.852C35.5613 269.279 34.6153 268.978 34.014 268.377C33.4127 267.776 33.112 266.833 33.112 265.55C33.112 264.267 33.409 263.324 34.003 262.723C34.6043 262.122 35.5467 261.821 36.83 261.821H39.91C41.142 261.821 42.055 262.096 42.649 262.646C43.2503 263.196 43.573 264.061 43.617 265.242C43.6317 265.418 43.584 265.561 43.474 265.671C43.3713 265.774 43.2283 265.825 43.045 265.825C42.8763 265.825 42.7407 265.774 42.638 265.671C42.5353 265.568 42.4767 265.429 42.462 265.253C42.4327 264.41 42.2273 263.819 41.846 263.482C41.4647 263.145 40.8193 262.976 39.91 262.976H36.83C35.8693 262.976 35.202 263.167 34.828 263.548C34.454 263.922 34.267 264.589 34.267 265.55C34.267 266.511 34.454 267.182 34.828 267.563C35.2093 267.937 35.884 268.124 36.852 268.124H39.866C41.23 268.124 42.2273 268.443 42.858 269.081C43.4887 269.712 43.804 270.705 43.804 272.062C43.804 273.419 43.4887 274.412 42.858 275.043C42.2273 275.666 41.23 275.978 39.866 275.978H36.698ZM51.8474 276C50.4761 276 49.4714 275.681 48.8334 275.043C48.1954 274.405 47.8764 273.4 47.8764 272.029V269.543C47.8764 268.172 48.1917 267.171 48.8224 266.54C49.4604 265.902 50.4687 265.59 51.8474 265.605H53.6514C54.7294 265.605 55.5507 265.788 56.1154 266.155C56.6874 266.514 57.0284 267.083 57.1384 267.86C57.1604 268.058 57.1164 268.208 57.0064 268.311C56.9037 268.414 56.7571 268.465 56.5664 268.465C56.3904 268.465 56.2584 268.421 56.1704 268.333C56.0824 268.238 56.0164 268.102 55.9724 267.926C55.8917 267.501 55.6754 267.2 55.3234 267.024C54.9714 266.848 54.4141 266.76 53.6514 266.76H51.8474C50.7987 266.745 50.0654 266.943 49.6474 267.354C49.2367 267.757 49.0314 268.487 49.0314 269.543V272.029C49.0314 273.078 49.2367 273.811 49.6474 274.229C50.0654 274.64 50.7987 274.845 51.8474 274.845H53.6514C54.4141 274.845 54.9714 274.757 55.3234 274.581C55.6754 274.405 55.8917 274.101 55.9724 273.668C56.0164 273.492 56.0824 273.36 56.1704 273.272C56.2584 273.177 56.3904 273.129 56.5664 273.129C56.7571 273.129 56.9037 273.184 57.0064 273.294C57.1164 273.397 57.1604 273.543 57.1384 273.734C57.0284 274.511 56.6874 275.083 56.1154 275.45C55.5507 275.817 54.7294 276 53.6514 276H51.8474ZM70.0258 265.605C70.4144 265.605 70.6088 265.796 70.6088 266.177V275.417C70.6088 275.806 70.4144 276 70.0258 276C69.6444 276 69.4538 275.806 69.4538 275.417V274.372C68.7571 275.457 67.4958 276 65.6698 276H65.0538C63.6824 276 62.6778 275.681 62.0398 275.043C61.4091 274.405 61.0938 273.4 61.0938 272.029V266.177C61.0938 265.796 61.2844 265.605 61.6658 265.605C62.0544 265.605 62.2488 265.796 62.2488 266.177V272.029C62.2488 273.078 62.4541 273.811 62.8648 274.229C63.2828 274.64 64.0124 274.845 65.0538 274.845H65.6698C66.8064 274.845 67.7011 274.662 68.3538 274.295C69.0064 273.928 69.3731 273.367 69.4538 272.612V266.177C69.4538 265.796 69.6444 265.605 70.0258 265.605ZM75.8525 276C75.4638 276 75.2695 275.806 75.2695 275.417V266.177C75.2695 265.796 75.4638 265.605 75.8525 265.605C76.2338 265.605 76.4245 265.796 76.4245 266.177V267.233C77.1212 266.148 78.3825 265.605 80.2085 265.605H80.8245C82.1958 265.605 83.1968 265.924 83.8275 266.562C84.4655 267.193 84.7845 268.194 84.7845 269.565V275.417C84.7845 275.806 84.5938 276 84.2125 276C83.8238 276 83.6295 275.806 83.6295 275.417V269.565C83.6295 268.516 83.4205 267.787 83.0025 267.376C82.5918 266.965 81.8658 266.76 80.8245 266.76H80.2085C79.0718 266.76 78.1772 266.94 77.5245 267.299C76.8718 267.658 76.5052 268.219 76.4245 268.982V275.417C76.4245 275.806 76.2338 276 75.8525 276ZM99.5647 276C98.2154 276 97.2291 275.688 96.6057 275.065C95.9824 274.442 95.6707 273.459 95.6707 272.117V266.76H94.3617C93.9731 266.76 93.7787 266.566 93.7787 266.177C93.7787 265.796 93.9731 265.605 94.3617 265.605H95.6707V263.24C95.6707 262.851 95.8614 262.657 96.2427 262.657C96.6314 262.657 96.8257 262.851 96.8257 263.24V265.605H99.5867C99.9681 265.605 100.159 265.796 100.159 266.177C100.159 266.566 99.9681 266.76 99.5867 266.76H96.8257V272.117C96.8257 273.144 97.0237 273.855 97.4197 274.251C97.8231 274.647 98.5381 274.845 99.5647 274.845C99.7774 274.845 99.9277 274.893 100.016 274.988C100.111 275.083 100.159 275.226 100.159 275.417C100.159 275.806 99.9607 276 99.5647 276ZM106.547 276C105.175 276 104.171 275.685 103.533 275.054C102.895 274.416 102.576 273.415 102.576 272.051V269.565C102.576 268.179 102.895 267.171 103.533 266.54C104.171 265.902 105.175 265.59 106.547 265.605H108.351C109.722 265.605 110.723 265.924 111.354 266.562C111.992 267.193 112.311 268.194 112.311 269.565V272.029C112.311 273.4 111.992 274.405 111.354 275.043C110.723 275.681 109.722 276 108.351 276H106.547ZM103.731 272.051C103.731 273.085 103.936 273.811 104.347 274.229C104.765 274.64 105.498 274.845 106.547 274.845H108.351C109.399 274.845 110.129 274.64 110.54 274.229C110.95 273.811 111.156 273.078 111.156 272.029V269.565C111.156 268.516 110.95 267.787 110.54 267.376C110.129 266.965 109.399 266.76 108.351 266.76H106.547C105.843 266.753 105.285 266.837 104.875 267.013C104.464 267.189 104.171 267.482 103.995 267.893C103.819 268.304 103.731 268.861 103.731 269.565V272.051ZM123.333 280.4C122.944 280.4 122.75 280.206 122.75 279.817V266.177C122.75 265.796 122.944 265.605 123.333 265.605C123.714 265.605 123.905 265.796 123.905 266.177V267.156C124.235 266.643 124.708 266.258 125.324 266.001C125.94 265.737 126.728 265.605 127.689 265.605H128.525C129.896 265.605 130.897 265.924 131.528 266.562C132.166 267.193 132.485 268.194 132.485 269.565V272.029C132.485 273.4 132.166 274.405 131.528 275.043C130.897 275.681 129.896 276 128.525 276H123.905V279.817C123.905 280.206 123.714 280.4 123.333 280.4ZM123.905 274.845H128.525C129.574 274.845 130.303 274.64 130.714 274.229C131.125 273.811 131.33 273.078 131.33 272.029V269.565C131.33 268.516 131.125 267.787 130.714 267.376C130.303 266.965 129.574 266.76 128.525 266.76H127.689C126.516 266.76 125.614 266.943 124.983 267.31C124.36 267.677 124 268.241 123.905 269.004V274.845ZM137.44 276C137.051 276 136.857 275.806 136.857 275.417V266.177C136.857 265.796 137.051 265.605 137.44 265.605C137.821 265.605 138.012 265.796 138.012 266.177V267.871C138.393 267.138 138.943 266.577 139.662 266.188C140.388 265.799 141.246 265.605 142.236 265.605C142.624 265.605 142.819 265.796 142.819 266.177C142.819 266.566 142.624 266.76 142.236 266.76C140.93 266.76 139.918 267.057 139.2 267.651C138.481 268.238 138.085 269.077 138.012 270.17V275.417C138.012 275.806 137.821 276 137.44 276ZM146.128 271.248V272.051C146.128 273.085 146.333 273.811 146.744 274.229C147.162 274.64 147.895 274.845 148.944 274.845H150.748C151.672 274.845 152.343 274.728 152.761 274.493C153.186 274.251 153.439 273.837 153.52 273.25C153.549 273.067 153.608 272.927 153.696 272.832C153.791 272.737 153.934 272.689 154.125 272.689C154.316 272.689 154.459 272.744 154.554 272.854C154.657 272.957 154.697 273.103 154.675 273.294C154.58 274.218 154.209 274.9 153.564 275.34C152.919 275.78 151.98 276 150.748 276H148.944C147.573 276 146.568 275.685 145.93 275.054C145.292 274.416 144.973 273.415 144.973 272.051V269.565C144.973 268.179 145.292 267.171 145.93 266.54C146.568 265.902 147.573 265.59 148.944 265.605H150.748C152.119 265.605 153.12 265.924 153.751 266.562C154.389 267.193 154.708 268.194 154.708 269.565V270.665C154.708 271.054 154.517 271.248 154.136 271.248H146.128ZM148.944 266.76C147.895 266.745 147.162 266.947 146.744 267.365C146.333 267.776 146.128 268.509 146.128 269.565V270.093H153.553V269.565C153.553 268.516 153.348 267.787 152.937 267.376C152.526 266.965 151.797 266.76 150.748 266.76H148.944ZM162.639 275.56C162.558 275.736 162.459 275.853 162.342 275.912C162.225 275.971 162.089 276 161.935 276C161.612 276 161.385 275.85 161.253 275.549L157.172 266.408C157.018 266.049 157.124 265.799 157.491 265.66C157.836 265.513 158.085 265.616 158.239 265.968L162.309 275.076H161.605L165.939 265.957C166.02 265.788 166.126 265.678 166.258 265.627C166.39 265.576 166.54 265.587 166.709 265.66C167.068 265.821 167.167 266.078 167.006 266.43L162.639 275.56ZM170.548 263.603C170.042 263.603 169.789 263.343 169.789 262.822V262.327C169.789 261.821 170.042 261.568 170.548 261.568H171.043C171.534 261.568 171.78 261.821 171.78 262.327V262.822C171.78 263.343 171.534 263.603 171.043 263.603H170.548ZM170.801 276C170.412 276 170.218 275.806 170.218 275.417V266.177C170.218 265.796 170.412 265.605 170.801 265.605C171.182 265.605 171.373 265.796 171.373 266.177V275.417C171.373 275.806 171.182 276 170.801 276ZM176.889 271.248V272.051C176.889 273.085 177.095 273.811 177.505 274.229C177.923 274.64 178.657 274.845 179.705 274.845H181.509C182.433 274.845 183.104 274.728 183.522 274.493C183.948 274.251 184.201 273.837 184.281 273.25C184.311 273.067 184.369 272.927 184.457 272.832C184.553 272.737 184.696 272.689 184.886 272.689C185.077 272.689 185.22 272.744 185.315 272.854C185.418 272.957 185.458 273.103 185.436 273.294C185.341 274.218 184.971 274.9 184.325 275.34C183.68 275.78 182.741 276 181.509 276H179.705C178.334 276 177.329 275.685 176.691 275.054C176.053 274.416 175.734 273.415 175.734 272.051V269.565C175.734 268.179 176.053 267.171 176.691 266.54C177.329 265.902 178.334 265.59 179.705 265.605H181.509C182.881 265.605 183.882 265.924 184.512 266.562C185.15 267.193 185.469 268.194 185.469 269.565V270.665C185.469 271.054 185.279 271.248 184.897 271.248H176.889ZM179.705 266.76C178.657 266.745 177.923 266.947 177.505 267.365C177.095 267.776 176.889 268.509 176.889 269.565V270.093H184.314V269.565C184.314 268.516 184.109 267.787 183.698 267.376C183.288 266.965 182.558 266.76 181.509 266.76H179.705ZM191.684 276C191.34 276 191.116 275.842 191.013 275.527L187.911 266.386C187.787 266.012 187.908 265.766 188.274 265.649C188.634 265.539 188.872 265.66 188.989 266.012L192.003 274.845H191.541L194.423 266.177C194.526 265.869 194.746 265.715 195.083 265.715C195.406 265.715 195.615 265.873 195.71 266.188L198.405 274.823H197.921L201.089 266.012C201.236 265.638 201.485 265.517 201.837 265.649C202.204 265.788 202.321 266.038 202.189 266.397L198.79 275.527C198.673 275.842 198.446 276 198.108 276C197.734 276 197.5 275.842 197.404 275.527L194.907 267.53H195.127L192.377 275.527C192.319 275.71 192.227 275.835 192.102 275.901C191.978 275.967 191.838 276 191.684 276Z" fill="white"/>
<path d="M109.647 298C108.774 298 108.135 297.799 107.729 297.398C107.323 296.992 107.12 296.355 107.12 295.487V293.905C107.12 293.023 107.323 292.381 107.729 291.98C108.135 291.574 108.774 291.376 109.647 291.385H110.795C111.668 291.385 112.305 291.588 112.706 291.994C113.112 292.395 113.315 293.032 113.315 293.905V295.473C113.315 296.346 113.112 296.985 112.706 297.391C112.305 297.797 111.668 298 110.795 298H109.647ZM107.855 295.487C107.855 296.145 107.986 296.607 108.247 296.873C108.513 297.134 108.98 297.265 109.647 297.265H110.795C111.462 297.265 111.927 297.134 112.188 296.873C112.449 296.607 112.58 296.14 112.58 295.473V293.905C112.58 293.238 112.449 292.773 112.188 292.512C111.927 292.251 111.462 292.12 110.795 292.12H109.647C109.199 292.115 108.844 292.169 108.583 292.281C108.322 292.393 108.135 292.58 108.023 292.841C107.911 293.102 107.855 293.457 107.855 293.905V295.487ZM116.466 298C116.218 298 116.095 297.876 116.095 297.629V291.749C116.095 291.506 116.218 291.385 116.466 291.385C116.708 291.385 116.83 291.506 116.83 291.749V292.827C117.072 292.36 117.422 292.003 117.88 291.756C118.342 291.509 118.888 291.385 119.518 291.385C119.765 291.385 119.889 291.506 119.889 291.749C119.889 291.996 119.765 292.12 119.518 292.12C118.687 292.12 118.043 292.309 117.586 292.687C117.128 293.06 116.876 293.595 116.83 294.29V297.629C116.83 297.876 116.708 298 116.466 298Z" fill="white" fill-opacity="0.5"/>
<g filter="url(#filter0_dd_0_1446)">
<rect x="62.5" y="311.5" width="109" height="35" rx="4.07111" stroke="white" shape-rendering="crispEdges"/>
<path d="M84.3155 337C82.7321 337 81.5755 336.635 80.8458 335.905C80.1161 335.176 79.7513 334.019 79.7513 332.436V327.456C79.7513 325.858 80.1125 324.697 80.8349 323.975C81.5646 323.253 82.7175 322.891 84.2936 322.891H86.9424C88.2851 322.891 89.2848 323.172 89.9415 323.734C90.5982 324.289 90.9594 325.183 91.0251 326.416C91.047 326.613 91.0068 326.762 90.9047 326.865C90.8098 326.967 90.6675 327.018 90.4778 327.018C90.113 327.018 89.9123 326.824 89.8758 326.438C89.8247 325.533 89.5766 324.909 89.1315 324.566C88.6864 324.216 87.9567 324.041 86.9424 324.041H84.2936C83.4545 324.041 82.7868 324.15 82.2906 324.369C81.7944 324.581 81.4369 324.938 81.218 325.442C81.0064 325.938 80.9005 326.609 80.9005 327.456V332.436C80.9005 333.282 81.01 333.954 81.2289 334.45C81.4478 334.946 81.8054 335.303 82.3016 335.522C82.7978 335.741 83.4691 335.851 84.3155 335.851H86.9424C87.6867 335.851 88.2741 335.76 88.7047 335.577C89.1425 335.395 89.4526 335.088 89.635 334.658C89.8174 334.227 89.9087 333.632 89.9087 332.874V331.505L87.5116 331.483C87.1322 331.483 86.9424 331.29 86.9424 330.903C86.9424 330.524 87.1322 330.334 87.5116 330.334L90.4888 330.356C90.8682 330.356 91.0579 330.546 91.0579 330.925V332.874C91.0579 334.318 90.7332 335.369 90.0838 336.026C89.4344 336.675 88.3872 337 86.9424 337H84.3155ZM97.4058 337C96.0412 337 95.0416 336.686 94.4067 336.059C93.7719 335.424 93.4545 334.428 93.4545 333.071V330.597C93.4545 329.218 93.7719 328.214 94.4067 327.587C95.0416 326.952 96.0412 326.642 97.4058 326.657H99.2008C100.565 326.657 101.561 326.974 102.189 327.609C102.824 328.236 103.141 329.232 103.141 330.597V333.049C103.141 334.413 102.824 335.413 102.189 336.048C101.561 336.683 100.565 337 99.2008 337H97.4058ZM94.6037 333.071C94.6037 334.099 94.8081 334.822 95.2167 335.238C95.6326 335.646 96.3623 335.851 97.4058 335.851H99.2008C100.244 335.851 100.97 335.646 101.379 335.238C101.788 334.822 101.992 334.092 101.992 333.049V330.597C101.992 329.553 101.788 328.827 101.379 328.419C100.97 328.01 100.244 327.806 99.2008 327.806H97.4058C96.7053 327.799 96.1507 327.882 95.7421 328.058C95.3334 328.233 95.0416 328.525 94.8664 328.933C94.6913 329.342 94.6037 329.896 94.6037 330.597V333.071ZM116.09 337C114.725 337 113.726 336.686 113.091 336.059C112.456 335.424 112.139 334.428 112.139 333.071V330.597C112.139 329.218 112.456 328.214 113.091 327.587C113.726 326.952 114.725 326.642 116.09 326.657H117.885C119.25 326.657 120.246 326.974 120.873 327.609C121.508 328.236 121.825 329.232 121.825 330.597V333.049C121.825 334.413 121.508 335.413 120.873 336.048C120.246 336.683 119.25 337 117.885 337H116.09ZM113.288 333.071C113.288 334.099 113.492 334.822 113.901 335.238C114.317 335.646 115.047 335.851 116.09 335.851H117.885C118.929 335.851 119.655 335.646 120.063 335.238C120.472 334.822 120.676 334.092 120.676 333.049V330.597C120.676 329.553 120.472 328.827 120.063 328.419C119.655 328.01 118.929 327.806 117.885 327.806H116.09C115.39 327.799 114.835 327.882 114.426 328.058C114.018 328.233 113.726 328.525 113.551 328.933C113.376 329.342 113.288 329.896 113.288 330.597V333.071ZM129.17 336.562C129.09 336.737 128.991 336.854 128.874 336.912C128.758 336.971 128.623 337 128.469 337C128.148 337 127.922 336.85 127.791 336.551L123.73 327.456C123.577 327.098 123.683 326.85 124.048 326.711C124.39 326.565 124.639 326.667 124.792 327.018L128.842 336.081H128.141L132.454 327.007C132.534 326.839 132.64 326.73 132.771 326.678C132.902 326.627 133.052 326.638 133.22 326.711C133.577 326.872 133.676 327.127 133.515 327.477L129.17 336.562ZM136.59 332.272V333.071C136.59 334.099 136.794 334.822 137.203 335.238C137.619 335.646 138.348 335.851 139.392 335.851H141.187C142.106 335.851 142.774 335.734 143.19 335.5C143.613 335.26 143.865 334.847 143.945 334.264C143.974 334.081 144.033 333.943 144.12 333.848C144.215 333.753 144.357 333.705 144.547 333.705C144.737 333.705 144.879 333.76 144.974 333.87C145.076 333.972 145.116 334.118 145.094 334.307C145 335.227 144.631 335.905 143.989 336.343C143.347 336.781 142.413 337 141.187 337H139.392C138.027 337 137.028 336.686 136.393 336.059C135.758 335.424 135.441 334.428 135.441 333.071V330.597C135.441 329.218 135.758 328.214 136.393 327.587C137.028 326.952 138.027 326.642 139.392 326.657H141.187C142.551 326.657 143.547 326.974 144.175 327.609C144.81 328.236 145.127 329.232 145.127 330.597V331.691C145.127 332.078 144.938 332.272 144.558 332.272H136.59ZM139.392 327.806C138.348 327.791 137.619 327.992 137.203 328.408C136.794 328.816 136.59 329.546 136.59 330.597V331.122H143.978V330.597C143.978 329.553 143.774 328.827 143.365 328.419C142.956 328.01 142.23 327.806 141.187 327.806H139.392ZM149.506 337C149.12 337 148.926 336.807 148.926 336.42V327.226C148.926 326.846 149.12 326.657 149.506 326.657C149.886 326.657 150.075 326.846 150.075 327.226V328.911C150.455 328.182 151.002 327.623 151.717 327.237C152.44 326.85 153.293 326.657 154.279 326.657C154.665 326.657 154.859 326.846 154.859 327.226C154.859 327.612 154.665 327.806 154.279 327.806C152.98 327.806 151.973 328.101 151.258 328.692C150.542 329.276 150.148 330.112 150.075 331.199V336.42C150.075 336.807 149.886 337 149.506 337Z" fill="white"/>
</g>
<defs>
<filter id="filter0_dd_0_1446" x="32.7449" y="283.573" width="158.255" height="82.4267" filterUnits="userSpaceOnUse" color-interpolation-filters="sRGB">
<feFlood flood-opacity="0" result="BackgroundImageFix"/>
<feColorMatrix in="SourceAlpha" type="matrix" values="0 0 0 0 0 0 0 0 0 0 0 0 0 0 0 0 0 0 127 0" result="hardAlpha"/>
<feOffset dx="4" dy="4"/>
<feGaussianBlur stdDeviation="7.5"/>
<feComposite in2="hardAlpha" operator="out"/>
<feColorMatrix type="matrix" values="0 0 0 0 0.0875 0 0 0 0 0.0875 0 0 0 0 0.0875 0 0 0 1 0"/>
<feBlend mode="normal" in2="BackgroundImageFix" result="effect1_dropShadow_0_1446"/>
<feColorMatrix in="SourceAlpha" type="matrix" values="0 0 0 0 0 0 0 0 0 0 0 0 0 0 0 0 0 0 127 0" result="hardAlpha"/>
<feOffset dx="-10.0565" dy="-8.22801"/>
<feGaussianBlur stdDeviation="9.59934"/>
<feComposite in2="hardAlpha" operator="out"/>
<feColorMatrix type="matrix" values="0 0 0 0 0.283333 0 0 0 0 0.283333 0 0 0 0 0.283333 0 0 0 0.25 0"/>
<feBlend mode="normal" in2="effect1_dropShadow_0_1446" result="effect2_dropShadow_0_1446"/>
<feBlend mode="normal" in="SourceGraphic" in2="effect2_dropShadow_0_1446" result="shape"/>
</filter>
<linearGradient id="paint0_linear_0_1446" x1="116.5" y1="0" x2="116.5" y2="56" gradientUnits="userSpaceOnUse">
<stop offset="0.477083" stop-color="white"/>
<stop offset="1" stop-color="white" stop-opacity="0"/>
</linearGradient>
<clipPath id="clip0_0_1446">
<rect width="186" height="186" fill="white" transform="translate(24 66)"/>
</clipPath>
</defs>
</svg>
